<svg xmlns="http://www.w3.org/2000/svg" viewBox="0 0 487.3 487.3"><path d="M470.25 284.9l-1.3-2c-8.5-13.1-17.3-26.7-26.2-39.9 7.7-11.5 15.2-23.3 22.6-34.7l4.2-6.5c7.3-11.3 9.3-23.5 5.7-34.4-3.7-10.9-12.7-19.5-25.3-24.2-8.2-3-16.4-6.2-24.5-9.2-6.8-2.6-13.9-5.3-20.9-7.9-.5-10.6-1.1-21.4-1.7-31.8-.3-6-.7-12.1-1-18.1-1.1-21.8-16.4-37-37.2-37-3.8 0-7.7.5-11.6 1.6l-3.6 1c-14.7 3.9-29.8 8-44.8 12.3-6.7-8.4-13.6-16.8-20.2-25-3.7-4.5-7.4-9-11-13.6-8.1-10-18.9-15.5-30.3-15.5-11.4 0-22.2 5.5-30.4 15.6l-4.8 5.9c-8.7 10.7-17.7 21.8-26.4 33-11.9-3.4-23.9-6.6-33.7-9.2-3.5-.9-6.9-1.8-9.9-2.6-.1 0-.2-.1-.3-.1-5.3-1.3-10.3-1.9-15-1.9-21.8 0-36.2 13.6-37.8 35.6-1.3 18.4-2.1 36.5-2.6 50.7-16.3 6.1-32.2 12.2-47.1 18.1-11.7 4.6-20 13.1-23.4 23.7-3.5 10.7-1.6 22.5 5.3 33.2 8.7 13.5 18.1 27.9 27.5 42.1-9.7 14.7-19.1 29.3-27.9 43.3-6.3 10-7.9 21.7-4.4 32.2s11.9 19 23 23.3l4.2 1.6c14.2 5.5 28.9 11.2 43.5 16.5.3 5.2.6 10.4 1 15.4.8 11 1.5 21.4 1.4 31.9-.1 10.7 4 21.2 11.4 28.6 7 7.1 16.5 11 26.7 11 4.3 0 8.7-.7 13.2-2.1 9.9-3.1 20.3-5.9 30.3-8.5 5.2-1.4 10.5-2.8 15.8-4.2 10.5 13.2 21.3 26.3 31.3 38.6 8.2 10 19 15.6 30.3 15.6s22.1-5.6 30.2-15.6c11.6-14.3 21.4-26.5 31.1-38.8 12.7 3.5 25.6 6.9 38 10.2l10.4 2.7c3.8 1 7.5 1.5 11.2 1.5 20.5 0 36.2-15.4 37.2-36.6.3-5.5.6-11.1.9-16.6.6-11 1.2-22.4 1.7-33.8 14.5-5.5 29.1-11.2 43.3-16.7l3.3-1.3c11.9-4.6 20.4-13.2 23.9-24 3.5-10.9 1.6-22.8-5.3-33.4zm-17.5 25.9c-1.2 3.8-4.7 7-9.8 9l-3.3 1.3c-14.8 5.8-30.2 11.7-45.3 17.4-8.4 3.2-12.8 9.1-13.1 17.8-.4 12.1-1.1 24.4-1.8 36.3-.3 5.6-.6 11.2-.9 16.7-.4 8.6-5.5 13.9-13.3 13.9-1.6 0-3.3-.2-5.1-.7l-10.4-2.7c-13.5-3.6-27.4-7.2-41-11-2-.5-3.8-.8-5.6-.8-5.6 0-10.5 2.5-14.4 7.5-10.3 13-20.6 25.8-32.9 41-2.5 3.1-6.5 6.7-11.6 6.7-4 0-8.1-2.4-11.7-6.8-10.7-13-22.1-26.9-33.1-40.9-3.9-4.9-8.7-7.3-14.3-7.3-1.9 0-3.8.3-5.8.9-6.1 1.7-12.5 3.4-18.6 5-10.3 2.7-21 5.5-31.4 8.8-2.1.7-4.1 1-6 1-4.7 0-7.9-2.1-9.6-3.9-2.9-2.9-4.5-7.1-4.4-11.4.1-11.4-.7-22.8-1.4-33.8-.4-5.8-.8-11.9-1.1-17.8-.4-8.6-4.7-14.5-12.7-17.5-15.3-5.6-30.9-11.6-45.9-17.4l-4.2-1.6c-4.5-1.7-7.6-4.7-8.8-8.5-1.2-3.7-.5-7.9 2-11.8 9.2-14.5 19-29.7 29.1-45 4.9-7.4 4.9-14.8 0-22.1-9.9-14.7-19.7-29.8-28.8-44-2.9-4.5-3.8-9-2.6-12.8 1.2-3.7 4.5-6.8 9.4-8.8 15.7-6.2 32.4-12.6 49.6-19.1 8.1-3 12.3-8.9 12.6-17.6.5-14.4 1.2-33.5 2.6-52.8.7-9.3 4.8-13.3 13.9-13.3 2.8 0 5.9.4 9.3 1.2 3 .8 6.3 1.7 9.8 2.6 10.7 2.8 22.8 6.1 35 9.5 2.4.7 4.7 1 6.8 1 6.2 0 11.5-2.8 15.8-8.4 8.9-11.5 18.2-23 27.2-34.1l4.8-5.9c3.5-4.3 7.7-6.7 11.7-6.7s8.2 2.4 11.6 6.6c3.7 4.6 7.4 9.1 11.1 13.6 7.2 8.8 14.6 17.9 21.7 26.9 4.1 5.2 9.1 7.8 14.9 7.8 2 0 4-.3 6.2-.9 15.6-4.5 31.6-8.8 47.1-12.9l3.6-1c1.9-.5 3.7-.7 5.4-.7 7.8 0 12.8 5.3 13.2 14.2.3 6.1.7 12.1 1 18.2.6 11.3 1.3 22.9 1.8 34.3.5 10.8 7.1 15.5 12.7 17.6 7.9 2.9 15.9 5.9 23.6 8.9 8.1 3.1 16.4 6.2 24.7 9.3 5.7 2.1 9.6 5.4 10.9 9.3 1.6 4.9-.8 10.2-3.1 13.8l-4.2 6.5c-7.8 12-15.8 24.5-23.8 36.6-4.9 7.4-5 14.9 0 22.1 9.3 13.8 18.6 28.1 27.5 41.9l1.3 2.1c2.4 4.3 3.3 8.9 2.1 12.7z"/><path d="M223.65 231.5c-6.6 0-12 5.4-12 12s5.4 12 12 12 12-5.4 12-12-5.4-12-12-12zm46 0c-6.6 0-12 5.4-12 12s5.4 12 12 12 12-5.4 12-12-5.4-12-12-12zm-92 0c-6.6 0-12 5.4-12 12s5.4 12 12 12 12-5.4 12-12-5.4-12-12-12zm138 0c-6.6 0-12 5.4-12 12s5.4 12 12 12 12-5.4 12-12-5.4-12-12-12z"/></svg>